<?xml version="1.0" standalone="no"?>
 <!DOCTYPE svg PUBLIC "-//W3C//DTD SVG 1.1//EN" 
 "http://www.w3.org/Graphics/SVG/1.1/DTD/svg11.dtd"> 
<svg xmlns="http://www.w3.org/2000/svg" version="1.1" 
    width="3.3147cm" height="10.856cm" viewBox="0 0 13050 42740 ">
<title>SVG Picture created as soilmoisture-B.Cu.svg date 2018/10/12 23:26:45 </title>
  <desc>Picture generated by PCBNEW </desc>
<g style="fill:#000000; fill-opacity:1;stroke:#000000; stroke-opacity:1;
stroke-linecap:round; stroke-linejoin:round; "
 transform="translate(0 0) scale(1 1)">
</g>
<g style="fill:#000000; fill-opacity:0.0; 
stroke:#000000; stroke-width:-0.000393701; stroke-opacity:1; 
stroke-linecap:round; stroke-linejoin:round;">
</g>
<g style="fill:#008400; fill-opacity:0.0; 
stroke:#008400; stroke-width:-0.000393701; stroke-opacity:1; 
stroke-linecap:round; stroke-linejoin:round;">
</g>
<g style="fill:#008400; fill-opacity:0.0; 
stroke:#008400; stroke-width:0; stroke-opacity:1; 
stroke-linecap:round; stroke-linejoin:round;">
</g>
<g style="fill:#008400; fill-opacity:1.0; 
stroke:#008400; stroke-width:0; stroke-opacity:1; 
stroke-linecap:round; stroke-linejoin:round;">
<polyline style="fill-rule:evenodd;"
points="1529,9213
1529,7213
2529,7213
2529,9213
1529,9213
" /> 
<polyline style="fill-rule:evenodd;"
points="10529,9213
10529,7213
11529,7213
11529,9213
10529,9213
" /> 
<circle cx="6529.53" cy="8213" r="3500" /> 
</g>
<g style="fill:#008400; fill-opacity:1.0; 
stroke:#008400; stroke-width:39.3701; stroke-opacity:1; 
stroke-linecap:round; stroke-linejoin:round;">
</g>
<g style="fill:#C2C2C2; fill-opacity:1.0; 
stroke:#C2C2C2; stroke-width:39.3701; stroke-opacity:1; 
stroke-linecap:round; stroke-linejoin:round;">
</g>
<g style="fill:#C2C2C2; fill-opacity:1.0; 
stroke:#C2C2C2; stroke-width:0; stroke-opacity:1; 
stroke-linecap:round; stroke-linejoin:round;">
<circle cx="2529.53" cy="6713" r="157.48" /> 
</g>
<g style="fill:#C2C2C2; fill-opacity:1.0; 
stroke:#C2C2C2; stroke-width:39.3701; stroke-opacity:1; 
stroke-linecap:round; stroke-linejoin:round;">
</g>
<g style="fill:#C2C2C2; fill-opacity:1.0; 
stroke:#C2C2C2; stroke-width:0; stroke-opacity:1; 
stroke-linecap:round; stroke-linejoin:round;">
<circle cx="4029.53" cy="11213" r="157.48" /> 
</g>
<g style="fill:#C2C2C2; fill-opacity:1.0; 
stroke:#C2C2C2; stroke-width:39.3701; stroke-opacity:1; 
stroke-linecap:round; stroke-linejoin:round;">
</g>
<g style="fill:#C2C2C2; fill-opacity:1.0; 
stroke:#C2C2C2; stroke-width:0; stroke-opacity:1; 
stroke-linecap:round; stroke-linejoin:round;">
<circle cx="10279.5" cy="6963" r="157.48" /> 
</g>
<g style="fill:#C2C2C2; fill-opacity:1.0; 
stroke:#C2C2C2; stroke-width:39.3701; stroke-opacity:1; 
stroke-linecap:round; stroke-linejoin:round;">
</g>
<g style="fill:#C2C2C2; fill-opacity:1.0; 
stroke:#C2C2C2; stroke-width:0; stroke-opacity:1; 
stroke-linecap:round; stroke-linejoin:round;">
<circle cx="4029.53" cy="12713" r="157.48" /> 
</g>
<g style="fill:#C2C2C2; fill-opacity:1.0; 
stroke:#C2C2C2; stroke-width:39.3701; stroke-opacity:1; 
stroke-linecap:round; stroke-linejoin:round;">
</g>
<g style="fill:#C2C2C2; fill-opacity:1.0; 
stroke:#C2C2C2; stroke-width:0; stroke-opacity:1; 
stroke-linecap:round; stroke-linejoin:round;">
<circle cx="9029.53" cy="4213" r="157.48" /> 
</g>
<g style="fill:#C2C2C2; fill-opacity:1.0; 
stroke:#C2C2C2; stroke-width:39.3701; stroke-opacity:1; 
stroke-linecap:round; stroke-linejoin:round;">
</g>
<g style="fill:#C2C2C2; fill-opacity:1.0; 
stroke:#C2C2C2; stroke-width:0; stroke-opacity:1; 
stroke-linecap:round; stroke-linejoin:round;">
<circle cx="11529.5" cy="9713" r="157.48" /> 
</g>
<g style="fill:#C2C2C2; fill-opacity:1.0; 
stroke:#C2C2C2; stroke-width:39.3701; stroke-opacity:1; 
stroke-linecap:round; stroke-linejoin:round;">
</g>
<g style="fill:#C2C2C2; fill-opacity:1.0; 
stroke:#C2C2C2; stroke-width:0; stroke-opacity:1; 
stroke-linecap:round; stroke-linejoin:round;">
<circle cx="10529.5" cy="9713" r="157.48" /> 
</g>
<g style="fill:#C2C2C2; fill-opacity:1.0; 
stroke:#C2C2C2; stroke-width:39.3701; stroke-opacity:1; 
stroke-linecap:round; stroke-linejoin:round;">
</g>
<g style="fill:#C2C2C2; fill-opacity:1.0; 
stroke:#C2C2C2; stroke-width:0; stroke-opacity:1; 
stroke-linecap:round; stroke-linejoin:round;">
<circle cx="11100.4" cy="10213" r="157.48" /> 
</g>
<g style="fill:#C2C2C2; fill-opacity:1.0; 
stroke:#C2C2C2; stroke-width:39.3701; stroke-opacity:1; 
stroke-linecap:round; stroke-linejoin:round;">
</g>
<g style="fill:#C2C2C2; fill-opacity:1.0; 
stroke:#C2C2C2; stroke-width:0; stroke-opacity:1; 
stroke-linecap:round; stroke-linejoin:round;">
<circle cx="10529.5" cy="10213" r="157.48" /> 
</g>
<g style="fill:#C2C2C2; fill-opacity:1.0; 
stroke:#C2C2C2; stroke-width:39.3701; stroke-opacity:1; 
stroke-linecap:round; stroke-linejoin:round;">
</g>
<g style="fill:#C2C2C2; fill-opacity:1.0; 
stroke:#C2C2C2; stroke-width:0; stroke-opacity:1; 
stroke-linecap:round; stroke-linejoin:round;">
<circle cx="8851.53" cy="4713" r="157.48" /> 
</g>
<g style="fill:#C2C2C2; fill-opacity:1.0; 
stroke:#C2C2C2; stroke-width:39.3701; stroke-opacity:1; 
stroke-linecap:round; stroke-linejoin:round;">
</g>
<g style="fill:#C2C2C2; fill-opacity:1.0; 
stroke:#C2C2C2; stroke-width:0; stroke-opacity:1; 
stroke-linecap:round; stroke-linejoin:round;">
<circle cx="1219.49" cy="12713" r="157.48" /> 
</g>
<g style="fill:#C2C2C2; fill-opacity:1.0; 
stroke:#C2C2C2; stroke-width:39.3701; stroke-opacity:1; 
stroke-linecap:round; stroke-linejoin:round;">
</g>
<g style="fill:#008400; fill-opacity:1.0; 
stroke:#008400; stroke-width:39.3701; stroke-opacity:1; 
stroke-linecap:round; stroke-linejoin:round;">
</g>
<g style="fill:#008400; fill-opacity:1.0; 
stroke:#008400; stroke-width:98.4252; stroke-opacity:1; 
stroke-linecap:round; stroke-linejoin:round;">
</g>
<g style="fill:#008400; fill-opacity:0.0; 
stroke:#008400; stroke-width:98.4252; stroke-opacity:1; 
stroke-linecap:round; stroke-linejoin:round;">
<path d="M10279 6963
L9029 8213
" />
<path d="M4029 10713
L6529 8213
" />
<path d="M4029 11213
L4029 10713
" />
<path d="M5029 6713
L6529 8213
" />
<path d="M2529 6713
L5029 6713
" />
<path d="M12529 13213
L12529 16213
" />
<path d="M12529 16213
L12529 18713
" />
<path d="M12529 18713
L12529 22213
" />
<path d="M12529 22213
L12529 24713
" />
<path d="M12529 24713
L12529 28213
" />
<path d="M12529 28213
L12529 30713
" />
<path d="M12529 30713
L12529 34213
" />
<path d="M12529 34213
L12529 36713
" />
<path d="M4029 12713
L12029 12713
" />
<path d="M12029 12713
L12529 13213
" />
<path d="M4029 12713
L3529 12213
" />
<path d="M11529 9713
L10529 9713
" />
<path d="M11100 10213
L10529 10213
" />
<path d="M11029 6891
L11029 8213
" />
<path d="M8851 4713
L11029 6891
" />
<path d="M8851 4713
L8694 4555
" />
<path d="M2029 6213
L2029 8213
" />
<path d="M3687 4555
L2029 6213
" />
<path d="M8851 4713
L8529 4391
" />
<path d="M8529 4391
L3851 4391
" />
<path d="M3851 4391
L3529 4713
" />
<path d="M1219 12713
L1029 12713
" />
<path d="M1029 12713
L529 13213
" />
<path d="M529 13213
L529 15713
" />
<path d="M529 15713
L529 19213
" />
<path d="M529 19213
L529 21713
" />
<path d="M529 21713
L529 22713
" />
<path d="M529 22713
L529 27213
" />
<path d="M529 27213
L529 31213
" />
<path d="M529 31213
L529 33713
" />
<path d="M529 33713
L529 37213
" />
<path d="M529 37213
L529 39213
" />
</g>
<g style="fill:#008400; fill-opacity:1.0; 
stroke:#008400; stroke-width:100; stroke-opacity:1; 
stroke-linecap:round; stroke-linejoin:round;">
<polyline style="fill-rule:evenodd;"
points="11979,15663
579,15663
579,13263
11979,13263
11979,15663
" /> 
<polyline style="fill-rule:evenodd;"
points="11979,21663
579,21663
579,19263
11979,19263
11979,21663
" /> 
<polyline style="fill-rule:evenodd;"
points="11979,27663
579,27663
579,25263
11979,25263
11979,27663
" /> 
<polyline style="fill-rule:evenodd;"
points="11979,33663
579,33663
579,31263
11979,31263
11979,33663
" /> 
<polyline style="fill-rule:evenodd;"
points="12479,39182
6529,42157
579,39182
579,37263
12479,37263
12479,39182
" /> 
<polyline style="fill-rule:evenodd;"
points="12479,18663
1079,18663
1079,16263
12479,16263
12479,18663
" /> 
<polyline style="fill-rule:evenodd;"
points="12479,24663
1079,24663
1079,22263
12479,22263
12479,24663
" /> 
<polyline style="fill-rule:evenodd;"
points="12479,30663
1079,30663
1079,28263
12479,28263
12479,30663
" /> 
<polyline style="fill-rule:evenodd;"
points="12479,36663
1079,36663
1079,34263
12479,34263
12479,36663
" /> 
<polyline style="fill-rule:evenodd;"
points="12750,12163
309,12163
309,10907
3905,10907
4322,11335
5685,11942
7176,11981
8569,11446
8736,11335
9153,10907
6529,8283
3905,10907
309,10907
309,7213
1274,7213
1274,9213
1294,9310
1349,9393
1431,9448
1529,9467
2529,9467
2627,9448
2709,9393
2765,9310
2784,9213
2784,8920
3295,10253
3407,10419
3835,10836
6458,8213
3835,5589
3407,6006
2800,7369
2784,7976
2784,7213
2765,7115
2709,7032
2627,6977
2529,6958
2328,6958
2328,6336
3919,4746
3975,4690
5242,4690
4489,4979
4322,5090
3905,5518
6529,8142
6535,8136
6605,8207
6600,8213
9224,10836
9651,10419
10258,9056
10274,8449
10274,9213
10294,9310
10324,9356
10298,9367
10184,9482
10122,9631
10122,9794
10184,9943
10203,9963
10184,9982
10122,10131
10122,10294
10184,10443
10298,10558
10448,10620
10610,10620
10760,10558
10806,10512
10823,10512
10869,10558
11019,10620
11181,10620
11331,10558
11445,10443
11507,10294
11507,10131
11503,10120
11610,10120
11760,10058
11874,9943
11937,9794
11937,9631
11874,9482
11760,9367
11734,9356
11765,9310
11784,9213
11784,7213
11765,7115
11709,7032
11627,6977
11529,6958
11328,6958
11328,6920
11334,6891
11328,6861
11328,6861
11311,6774
11245,6675
11220,6658
9259,4697
9259,4631
9196,4482
9082,4367
8932,4305
8867,4305
8761,4200
8745,4175
8646,4109
8558,4091
8558,4091
8529,4085
8500,4091
3880,4091
3851,4085
3822,4091
3822,4091
3734,4109
3635,4175
3619,4200
3496,4323
1838,5980
1813,5997
1747,6096
1730,6183
1730,6183
1724,6213
1730,6242
1730,6958
1529,6958
1431,6977
1349,7032
1294,7115
1274,7213
309,7213
309,3992
12750,3992
12750,12163
" /> 
<polyline style="fill-rule:evenodd;"
points="10673,6958
10529,6958
10431,6977
10349,7032
10294,7115
10274,7213
10274,7505
9763,6172
9651,6006
9224,5589
9264,5548
10673,6958
" /> 
</g>
<g style="fill:#FFFFFF; fill-opacity:1.0; 
stroke:#FFFFFF; stroke-width:100; stroke-opacity:1; 
stroke-linecap:round; stroke-linejoin:round;">
</g>
<g style="fill:#FFFFFF; fill-opacity:1.0; 
stroke:#FFFFFF; stroke-width:0; stroke-opacity:1; 
stroke-linecap:round; stroke-linejoin:round;">
<circle cx="2529.53" cy="6713" r="78.7402" /> 
</g>
<g style="fill:#FFFFFF; fill-opacity:1.0; 
stroke:#FFFFFF; stroke-width:39.3701; stroke-opacity:1; 
stroke-linecap:round; stroke-linejoin:round;">
</g>
<g style="fill:#FFFFFF; fill-opacity:1.0; 
stroke:#FFFFFF; stroke-width:0; stroke-opacity:1; 
stroke-linecap:round; stroke-linejoin:round;">
<circle cx="4029.53" cy="11213" r="78.7402" /> 
</g>
<g style="fill:#FFFFFF; fill-opacity:1.0; 
stroke:#FFFFFF; stroke-width:39.3701; stroke-opacity:1; 
stroke-linecap:round; stroke-linejoin:round;">
</g>
<g style="fill:#FFFFFF; fill-opacity:1.0; 
stroke:#FFFFFF; stroke-width:0; stroke-opacity:1; 
stroke-linecap:round; stroke-linejoin:round;">
<circle cx="10279.5" cy="6963" r="78.7402" /> 
</g>
<g style="fill:#FFFFFF; fill-opacity:1.0; 
stroke:#FFFFFF; stroke-width:39.3701; stroke-opacity:1; 
stroke-linecap:round; stroke-linejoin:round;">
</g>
<g style="fill:#FFFFFF; fill-opacity:1.0; 
stroke:#FFFFFF; stroke-width:0; stroke-opacity:1; 
stroke-linecap:round; stroke-linejoin:round;">
<circle cx="4029.53" cy="12713" r="78.7402" /> 
</g>
<g style="fill:#FFFFFF; fill-opacity:1.0; 
stroke:#FFFFFF; stroke-width:39.3701; stroke-opacity:1; 
stroke-linecap:round; stroke-linejoin:round;">
</g>
<g style="fill:#FFFFFF; fill-opacity:1.0; 
stroke:#FFFFFF; stroke-width:0; stroke-opacity:1; 
stroke-linecap:round; stroke-linejoin:round;">
<circle cx="9029.53" cy="4213" r="78.7402" /> 
</g>
<g style="fill:#FFFFFF; fill-opacity:1.0; 
stroke:#FFFFFF; stroke-width:39.3701; stroke-opacity:1; 
stroke-linecap:round; stroke-linejoin:round;">
</g>
<g style="fill:#FFFFFF; fill-opacity:1.0; 
stroke:#FFFFFF; stroke-width:0; stroke-opacity:1; 
stroke-linecap:round; stroke-linejoin:round;">
<circle cx="11529.5" cy="9713" r="78.7402" /> 
</g>
<g style="fill:#FFFFFF; fill-opacity:1.0; 
stroke:#FFFFFF; stroke-width:39.3701; stroke-opacity:1; 
stroke-linecap:round; stroke-linejoin:round;">
</g>
<g style="fill:#FFFFFF; fill-opacity:1.0; 
stroke:#FFFFFF; stroke-width:0; stroke-opacity:1; 
stroke-linecap:round; stroke-linejoin:round;">
<circle cx="10529.5" cy="9713" r="78.7402" /> 
</g>
<g style="fill:#FFFFFF; fill-opacity:1.0; 
stroke:#FFFFFF; stroke-width:39.3701; stroke-opacity:1; 
stroke-linecap:round; stroke-linejoin:round;">
</g>
<g style="fill:#FFFFFF; fill-opacity:1.0; 
stroke:#FFFFFF; stroke-width:0; stroke-opacity:1; 
stroke-linecap:round; stroke-linejoin:round;">
<circle cx="11100.4" cy="10213" r="78.7402" /> 
</g>
<g style="fill:#FFFFFF; fill-opacity:1.0; 
stroke:#FFFFFF; stroke-width:39.3701; stroke-opacity:1; 
stroke-linecap:round; stroke-linejoin:round;">
</g>
<g style="fill:#FFFFFF; fill-opacity:1.0; 
stroke:#FFFFFF; stroke-width:0; stroke-opacity:1; 
stroke-linecap:round; stroke-linejoin:round;">
<circle cx="10529.5" cy="10213" r="78.7402" /> 
</g>
<g style="fill:#FFFFFF; fill-opacity:1.0; 
stroke:#FFFFFF; stroke-width:39.3701; stroke-opacity:1; 
stroke-linecap:round; stroke-linejoin:round;">
</g>
<g style="fill:#FFFFFF; fill-opacity:1.0; 
stroke:#FFFFFF; stroke-width:0; stroke-opacity:1; 
stroke-linecap:round; stroke-linejoin:round;">
<circle cx="8851.53" cy="4713" r="78.7402" /> 
</g>
<g style="fill:#FFFFFF; fill-opacity:1.0; 
stroke:#FFFFFF; stroke-width:39.3701; stroke-opacity:1; 
stroke-linecap:round; stroke-linejoin:round;">
</g>
<g style="fill:#FFFFFF; fill-opacity:1.0; 
stroke:#FFFFFF; stroke-width:0; stroke-opacity:1; 
stroke-linecap:round; stroke-linejoin:round;">
<circle cx="1219.49" cy="12713" r="78.7402" /> 
</g>
<g style="fill:#FFFFFF; fill-opacity:1.0; 
stroke:#FFFFFF; stroke-width:39.3701; stroke-opacity:1; 
stroke-linecap:round; stroke-linejoin:round;">
</g>
<g style="fill:#000000; fill-opacity:1.0; 
stroke:#000000; stroke-width:39.3701; stroke-opacity:1; 
stroke-linecap:round; stroke-linejoin:round;">
</g>
<g style="fill:#C2C200; fill-opacity:1.0; 
stroke:#C2C200; stroke-width:39.3701; stroke-opacity:1; 
stroke-linecap:round; stroke-linejoin:round;">
</g>
<g style="fill:#C2C200; fill-opacity:1.0; 
stroke:#C2C200; stroke-width:59.0551; stroke-opacity:1; 
stroke-linecap:round; stroke-linejoin:round;">
</g>
<g style="fill:#C2C200; fill-opacity:0.0; 
stroke:#C2C200; stroke-width:59.0551; stroke-opacity:1; 
stroke-linecap:round; stroke-linejoin:round;">
<path d="M29 3713
L29 39213
" />
<path d="M13029 39213
L13029 3713
" />
<path d="M13029 3713
L12029 3713
" />
<path d="M6529 42713
L13029 39213
" />
<path d="M29 39213
L6529 42713
" />
<path d="M529 3713
L29 3713
" />
<path d="M1029 3713
L529 3713
" />
<path d="M1029 3713
L12029 3713
" />
</g> 
</svg>
