<?xml version="1.0" standalone="no"?>
 <!DOCTYPE svg PUBLIC "-//W3C//DTD SVG 1.1//EN" 
 "http://www.w3.org/Graphics/SVG/1.1/DTD/svg11.dtd"> 
<svg xmlns="http://www.w3.org/2000/svg" version="1.1" 
    width="3.3147cm" height="10.856cm" viewBox="0 0 13050 42740 ">
<title>SVG Picture created as soilmoisture-F.Cu.svg date 2018/10/12 23:26:45 </title>
  <desc>Picture generated by PCBNEW </desc>
<g style="fill:#000000; fill-opacity:1;stroke:#000000; stroke-opacity:1;
stroke-linecap:round; stroke-linejoin:round; "
 transform="translate(0 0) scale(1 1)">
</g>
<g style="fill:#000000; fill-opacity:0.0; 
stroke:#000000; stroke-width:-0.000393701; stroke-opacity:1; 
stroke-linecap:round; stroke-linejoin:round;">
</g>
<g style="fill:#840000; fill-opacity:0.0; 
stroke:#840000; stroke-width:-0.000393701; stroke-opacity:1; 
stroke-linecap:round; stroke-linejoin:round;">
</g>
<g style="fill:#840000; fill-opacity:0.0; 
stroke:#840000; stroke-width:0; stroke-opacity:1; 
stroke-linecap:round; stroke-linejoin:round;">
</g>
<g style="fill:#840000; fill-opacity:1.0; 
stroke:#840000; stroke-width:0; stroke-opacity:1; 
stroke-linecap:round; stroke-linejoin:round;">
<polyline style="fill-rule:evenodd;"
points="5289,9358
5289,9067
6234,9067
6234,9358
5289,9358
" /> 
<polyline style="fill-rule:evenodd;"
points="6824,9358
6824,9067
7769,9067
7769,9358
6824,9358
" /> 
<polyline style="fill-rule:evenodd;"
points="5289,9858
5289,9567
6234,9567
6234,9858
5289,9858
" /> 
<polyline style="fill-rule:evenodd;"
points="6824,9858
6824,9567
7769,9567
7769,9858
6824,9858
" /> 
<polyline style="fill-rule:evenodd;"
points="5289,10358
5289,10067
6234,10067
6234,10358
5289,10358
" /> 
<polyline style="fill-rule:evenodd;"
points="6824,10358
6824,10067
7769,10067
7769,10358
6824,10358
" /> 
<polyline style="fill-rule:evenodd;"
points="5289,10858
5289,10567
6234,10567
6234,10858
5289,10858
" /> 
<polyline style="fill-rule:evenodd;"
points="6824,10858
6824,10567
7769,10567
7769,10858
6824,10858
" /> 
<polyline style="fill-rule:evenodd;"
points="5289,11358
5289,11067
6234,11067
6234,11358
5289,11358
" /> 
<polyline style="fill-rule:evenodd;"
points="6824,11358
6824,11067
7769,11067
7769,11358
6824,11358
" /> 
<polyline style="fill-rule:evenodd;"
points="4324,4611
4324,4886
3734,4886
3734,4611
4324,4611
" /> 
<polyline style="fill-rule:evenodd;"
points="3734,5319
3734,5044
4324,5044
4324,5319
3734,5319
" /> 
<polyline style="fill-rule:evenodd;"
points="3734,5752
3734,5477
4324,5477
4324,5752
3734,5752
" /> 
<polyline style="fill-rule:evenodd;"
points="3734,6185
3734,5910
4324,5910
4324,6185
3734,6185
" /> 
<polyline style="fill-rule:evenodd;"
points="3734,6618
3734,6343
4324,6343
4324,6618
3734,6618
" /> 
<polyline style="fill-rule:evenodd;"
points="3734,7051
3734,6776
4324,6776
4324,7051
3734,7051
" /> 
<polyline style="fill-rule:evenodd;"
points="3734,7484
3734,7209
4324,7209
4324,7484
3734,7484
" /> 
<polyline style="fill-rule:evenodd;"
points="3734,7917
3734,7642
4324,7642
4324,7917
3734,7917
" /> 
<polyline style="fill-rule:evenodd;"
points="9245,7917
9245,7642
9835,7642
9835,7917
9245,7917
" /> 
<polyline style="fill-rule:evenodd;"
points="9245,7484
9245,7209
9835,7209
9835,7484
9245,7484
" /> 
<polyline style="fill-rule:evenodd;"
points="9245,7051
9245,6776
9835,6776
9835,7051
9245,7051
" /> 
<polyline style="fill-rule:evenodd;"
points="9245,6618
9245,6343
9835,6343
9835,6618
9245,6618
" /> 
<polyline style="fill-rule:evenodd;"
points="9245,6185
9245,5910
9835,5910
9835,6185
9245,6185
" /> 
<polyline style="fill-rule:evenodd;"
points="9245,5752
9245,5477
9835,5477
9835,5752
9245,5752
" /> 
<polyline style="fill-rule:evenodd;"
points="9245,5319
9245,5044
9835,5044
9835,5319
9245,5319
" /> 
<polyline style="fill-rule:evenodd;"
points="9245,4886
9245,4611
9835,4611
9835,4886
9245,4886
" /> 
<circle cx="5899.53" cy="5064" r="118" /> 
</g>
<g style="fill:#840000; fill-opacity:1.0; 
stroke:#840000; stroke-width:39.3701; stroke-opacity:1; 
stroke-linecap:round; stroke-linejoin:round;">
</g>
<g style="fill:#840000; fill-opacity:1.0; 
stroke:#840000; stroke-width:0; stroke-opacity:1; 
stroke-linecap:round; stroke-linejoin:round;">
<circle cx="5899.53" cy="5536" r="118" /> 
</g>
<g style="fill:#840000; fill-opacity:1.0; 
stroke:#840000; stroke-width:39.3701; stroke-opacity:1; 
stroke-linecap:round; stroke-linejoin:round;">
</g>
<g style="fill:#840000; fill-opacity:1.0; 
stroke:#840000; stroke-width:0; stroke-opacity:1; 
stroke-linecap:round; stroke-linejoin:round;">
<circle cx="5899.53" cy="6009" r="118" /> 
</g>
<g style="fill:#840000; fill-opacity:1.0; 
stroke:#840000; stroke-width:39.3701; stroke-opacity:1; 
stroke-linecap:round; stroke-linejoin:round;">
</g>
<g style="fill:#840000; fill-opacity:1.0; 
stroke:#840000; stroke-width:0; stroke-opacity:1; 
stroke-linecap:round; stroke-linejoin:round;">
<circle cx="5899.53" cy="6481" r="118" /> 
</g>
<g style="fill:#840000; fill-opacity:1.0; 
stroke:#840000; stroke-width:39.3701; stroke-opacity:1; 
stroke-linecap:round; stroke-linejoin:round;">
</g>
<g style="fill:#840000; fill-opacity:1.0; 
stroke:#840000; stroke-width:0; stroke-opacity:1; 
stroke-linecap:round; stroke-linejoin:round;">
<circle cx="5899.53" cy="6954" r="118" /> 
</g>
<g style="fill:#840000; fill-opacity:1.0; 
stroke:#840000; stroke-width:39.3701; stroke-opacity:1; 
stroke-linecap:round; stroke-linejoin:round;">
</g>
<g style="fill:#840000; fill-opacity:1.0; 
stroke:#840000; stroke-width:0; stroke-opacity:1; 
stroke-linecap:round; stroke-linejoin:round;">
<circle cx="5899.53" cy="7426" r="118" /> 
</g>
<g style="fill:#840000; fill-opacity:1.0; 
stroke:#840000; stroke-width:39.3701; stroke-opacity:1; 
stroke-linecap:round; stroke-linejoin:round;">
</g>
<g style="fill:#840000; fill-opacity:1.0; 
stroke:#840000; stroke-width:0; stroke-opacity:1; 
stroke-linecap:round; stroke-linejoin:round;">
<circle cx="5899.53" cy="7899" r="118" /> 
</g>
<g style="fill:#840000; fill-opacity:1.0; 
stroke:#840000; stroke-width:39.3701; stroke-opacity:1; 
stroke-linecap:round; stroke-linejoin:round;">
</g>
<g style="fill:#840000; fill-opacity:1.0; 
stroke:#840000; stroke-width:0; stroke-opacity:1; 
stroke-linecap:round; stroke-linejoin:round;">
<circle cx="6489.53" cy="5064" r="118" /> 
</g>
<g style="fill:#840000; fill-opacity:1.0; 
stroke:#840000; stroke-width:39.3701; stroke-opacity:1; 
stroke-linecap:round; stroke-linejoin:round;">
</g>
<g style="fill:#840000; fill-opacity:1.0; 
stroke:#840000; stroke-width:0; stroke-opacity:1; 
stroke-linecap:round; stroke-linejoin:round;">
<circle cx="6489.53" cy="5536" r="118" /> 
</g>
<g style="fill:#840000; fill-opacity:1.0; 
stroke:#840000; stroke-width:39.3701; stroke-opacity:1; 
stroke-linecap:round; stroke-linejoin:round;">
</g>
<g style="fill:#840000; fill-opacity:1.0; 
stroke:#840000; stroke-width:0; stroke-opacity:1; 
stroke-linecap:round; stroke-linejoin:round;">
<circle cx="6489.53" cy="6009" r="118" /> 
</g>
<g style="fill:#840000; fill-opacity:1.0; 
stroke:#840000; stroke-width:39.3701; stroke-opacity:1; 
stroke-linecap:round; stroke-linejoin:round;">
</g>
<g style="fill:#840000; fill-opacity:1.0; 
stroke:#840000; stroke-width:0; stroke-opacity:1; 
stroke-linecap:round; stroke-linejoin:round;">
<circle cx="6489.53" cy="6481" r="118" /> 
</g>
<g style="fill:#840000; fill-opacity:1.0; 
stroke:#840000; stroke-width:39.3701; stroke-opacity:1; 
stroke-linecap:round; stroke-linejoin:round;">
</g>
<g style="fill:#840000; fill-opacity:1.0; 
stroke:#840000; stroke-width:0; stroke-opacity:1; 
stroke-linecap:round; stroke-linejoin:round;">
<circle cx="6489.53" cy="6954" r="118" /> 
</g>
<g style="fill:#840000; fill-opacity:1.0; 
stroke:#840000; stroke-width:39.3701; stroke-opacity:1; 
stroke-linecap:round; stroke-linejoin:round;">
</g>
<g style="fill:#840000; fill-opacity:1.0; 
stroke:#840000; stroke-width:0; stroke-opacity:1; 
stroke-linecap:round; stroke-linejoin:round;">
<circle cx="6489.53" cy="7426" r="118" /> 
</g>
<g style="fill:#840000; fill-opacity:1.0; 
stroke:#840000; stroke-width:39.3701; stroke-opacity:1; 
stroke-linecap:round; stroke-linejoin:round;">
</g>
<g style="fill:#840000; fill-opacity:1.0; 
stroke:#840000; stroke-width:0; stroke-opacity:1; 
stroke-linecap:round; stroke-linejoin:round;">
<circle cx="6489.53" cy="7899" r="118" /> 
</g>
<g style="fill:#840000; fill-opacity:1.0; 
stroke:#840000; stroke-width:39.3701; stroke-opacity:1; 
stroke-linecap:round; stroke-linejoin:round;">
</g>
<g style="fill:#840000; fill-opacity:1.0; 
stroke:#840000; stroke-width:0; stroke-opacity:1; 
stroke-linecap:round; stroke-linejoin:round;">
<circle cx="7080.53" cy="5064" r="118" /> 
</g>
<g style="fill:#840000; fill-opacity:1.0; 
stroke:#840000; stroke-width:39.3701; stroke-opacity:1; 
stroke-linecap:round; stroke-linejoin:round;">
</g>
<g style="fill:#840000; fill-opacity:1.0; 
stroke:#840000; stroke-width:0; stroke-opacity:1; 
stroke-linecap:round; stroke-linejoin:round;">
<circle cx="7080.53" cy="5536" r="118" /> 
</g>
<g style="fill:#840000; fill-opacity:1.0; 
stroke:#840000; stroke-width:39.3701; stroke-opacity:1; 
stroke-linecap:round; stroke-linejoin:round;">
</g>
<g style="fill:#840000; fill-opacity:1.0; 
stroke:#840000; stroke-width:0; stroke-opacity:1; 
stroke-linecap:round; stroke-linejoin:round;">
<circle cx="7080.53" cy="6009" r="118" /> 
</g>
<g style="fill:#840000; fill-opacity:1.0; 
stroke:#840000; stroke-width:39.3701; stroke-opacity:1; 
stroke-linecap:round; stroke-linejoin:round;">
</g>
<g style="fill:#840000; fill-opacity:1.0; 
stroke:#840000; stroke-width:0; stroke-opacity:1; 
stroke-linecap:round; stroke-linejoin:round;">
<circle cx="7080.53" cy="6481" r="118" /> 
</g>
<g style="fill:#840000; fill-opacity:1.0; 
stroke:#840000; stroke-width:39.3701; stroke-opacity:1; 
stroke-linecap:round; stroke-linejoin:round;">
</g>
<g style="fill:#840000; fill-opacity:1.0; 
stroke:#840000; stroke-width:0; stroke-opacity:1; 
stroke-linecap:round; stroke-linejoin:round;">
<circle cx="7080.53" cy="6954" r="118" /> 
</g>
<g style="fill:#840000; fill-opacity:1.0; 
stroke:#840000; stroke-width:39.3701; stroke-opacity:1; 
stroke-linecap:round; stroke-linejoin:round;">
</g>
<g style="fill:#840000; fill-opacity:1.0; 
stroke:#840000; stroke-width:0; stroke-opacity:1; 
stroke-linecap:round; stroke-linejoin:round;">
<circle cx="7080.53" cy="7426" r="118" /> 
</g>
<g style="fill:#840000; fill-opacity:1.0; 
stroke:#840000; stroke-width:39.3701; stroke-opacity:1; 
stroke-linecap:round; stroke-linejoin:round;">
</g>
<g style="fill:#840000; fill-opacity:1.0; 
stroke:#840000; stroke-width:0; stroke-opacity:1; 
stroke-linecap:round; stroke-linejoin:round;">
<circle cx="7080.53" cy="7899" r="118" /> 
</g>
<g style="fill:#840000; fill-opacity:1.0; 
stroke:#840000; stroke-width:39.3701; stroke-opacity:1; 
stroke-linecap:round; stroke-linejoin:round;">
</g>
<g style="fill:#840000; fill-opacity:1.0; 
stroke:#840000; stroke-width:0; stroke-opacity:1; 
stroke-linecap:round; stroke-linejoin:round;">
<circle cx="7670.53" cy="5064" r="118" /> 
</g>
<g style="fill:#840000; fill-opacity:1.0; 
stroke:#840000; stroke-width:39.3701; stroke-opacity:1; 
stroke-linecap:round; stroke-linejoin:round;">
</g>
<g style="fill:#840000; fill-opacity:1.0; 
stroke:#840000; stroke-width:0; stroke-opacity:1; 
stroke-linecap:round; stroke-linejoin:round;">
<circle cx="7670.53" cy="5536" r="118" /> 
</g>
<g style="fill:#840000; fill-opacity:1.0; 
stroke:#840000; stroke-width:39.3701; stroke-opacity:1; 
stroke-linecap:round; stroke-linejoin:round;">
</g>
<g style="fill:#840000; fill-opacity:1.0; 
stroke:#840000; stroke-width:0; stroke-opacity:1; 
stroke-linecap:round; stroke-linejoin:round;">
<circle cx="7670.53" cy="6009" r="118" /> 
</g>
<g style="fill:#840000; fill-opacity:1.0; 
stroke:#840000; stroke-width:39.3701; stroke-opacity:1; 
stroke-linecap:round; stroke-linejoin:round;">
</g>
<g style="fill:#840000; fill-opacity:1.0; 
stroke:#840000; stroke-width:0; stroke-opacity:1; 
stroke-linecap:round; stroke-linejoin:round;">
<circle cx="7670.53" cy="6481" r="118" /> 
</g>
<g style="fill:#840000; fill-opacity:1.0; 
stroke:#840000; stroke-width:39.3701; stroke-opacity:1; 
stroke-linecap:round; stroke-linejoin:round;">
</g>
<g style="fill:#840000; fill-opacity:1.0; 
stroke:#840000; stroke-width:0; stroke-opacity:1; 
stroke-linecap:round; stroke-linejoin:round;">
<circle cx="7670.53" cy="6954" r="118" /> 
</g>
<g style="fill:#840000; fill-opacity:1.0; 
stroke:#840000; stroke-width:39.3701; stroke-opacity:1; 
stroke-linecap:round; stroke-linejoin:round;">
</g>
<g style="fill:#840000; fill-opacity:1.0; 
stroke:#840000; stroke-width:0; stroke-opacity:1; 
stroke-linecap:round; stroke-linejoin:round;">
<circle cx="7670.53" cy="7426" r="118" /> 
</g>
<g style="fill:#840000; fill-opacity:1.0; 
stroke:#840000; stroke-width:39.3701; stroke-opacity:1; 
stroke-linecap:round; stroke-linejoin:round;">
</g>
<g style="fill:#840000; fill-opacity:1.0; 
stroke:#840000; stroke-width:0; stroke-opacity:1; 
stroke-linecap:round; stroke-linejoin:round;">
<circle cx="7670.53" cy="7899" r="118" /> 
</g>
<g style="fill:#840000; fill-opacity:1.0; 
stroke:#840000; stroke-width:39.3701; stroke-opacity:1; 
stroke-linecap:round; stroke-linejoin:round;">
</g>
<g style="fill:#840000; fill-opacity:1.0; 
stroke:#840000; stroke-width:0; stroke-opacity:1; 
stroke-linecap:round; stroke-linejoin:round;">
<circle cx="8261.53" cy="5064" r="118" /> 
</g>
<g style="fill:#840000; fill-opacity:1.0; 
stroke:#840000; stroke-width:39.3701; stroke-opacity:1; 
stroke-linecap:round; stroke-linejoin:round;">
</g>
<g style="fill:#840000; fill-opacity:1.0; 
stroke:#840000; stroke-width:0; stroke-opacity:1; 
stroke-linecap:round; stroke-linejoin:round;">
<circle cx="8261.53" cy="5536" r="118" /> 
</g>
<g style="fill:#840000; fill-opacity:1.0; 
stroke:#840000; stroke-width:39.3701; stroke-opacity:1; 
stroke-linecap:round; stroke-linejoin:round;">
</g>
<g style="fill:#840000; fill-opacity:1.0; 
stroke:#840000; stroke-width:0; stroke-opacity:1; 
stroke-linecap:round; stroke-linejoin:round;">
<circle cx="8261.53" cy="6009" r="118" /> 
</g>
<g style="fill:#840000; fill-opacity:1.0; 
stroke:#840000; stroke-width:39.3701; stroke-opacity:1; 
stroke-linecap:round; stroke-linejoin:round;">
</g>
<g style="fill:#840000; fill-opacity:1.0; 
stroke:#840000; stroke-width:0; stroke-opacity:1; 
stroke-linecap:round; stroke-linejoin:round;">
<circle cx="8261.53" cy="6481" r="118" /> 
</g>
<g style="fill:#840000; fill-opacity:1.0; 
stroke:#840000; stroke-width:39.3701; stroke-opacity:1; 
stroke-linecap:round; stroke-linejoin:round;">
</g>
<g style="fill:#840000; fill-opacity:1.0; 
stroke:#840000; stroke-width:0; stroke-opacity:1; 
stroke-linecap:round; stroke-linejoin:round;">
<circle cx="8261.53" cy="6954" r="118" /> 
</g>
<g style="fill:#840000; fill-opacity:1.0; 
stroke:#840000; stroke-width:39.3701; stroke-opacity:1; 
stroke-linecap:round; stroke-linejoin:round;">
</g>
<g style="fill:#840000; fill-opacity:1.0; 
stroke:#840000; stroke-width:0; stroke-opacity:1; 
stroke-linecap:round; stroke-linejoin:round;">
<circle cx="8261.53" cy="7426" r="118" /> 
</g>
<g style="fill:#840000; fill-opacity:1.0; 
stroke:#840000; stroke-width:39.3701; stroke-opacity:1; 
stroke-linecap:round; stroke-linejoin:round;">
</g>
<g style="fill:#840000; fill-opacity:1.0; 
stroke:#840000; stroke-width:0; stroke-opacity:1; 
stroke-linecap:round; stroke-linejoin:round;">
<circle cx="8261.53" cy="7899" r="118" /> 
</g>
<g style="fill:#840000; fill-opacity:1.0; 
stroke:#840000; stroke-width:39.3701; stroke-opacity:1; 
stroke-linecap:round; stroke-linejoin:round;">
</g>
<g style="fill:#840000; fill-opacity:1.0; 
stroke:#840000; stroke-width:0; stroke-opacity:1; 
stroke-linecap:round; stroke-linejoin:round;">
<polyline style="fill-rule:evenodd;"
points="5163,4571
5163,3981
5753,3981
5753,4571
5163,4571
" /> 
<polyline style="fill-rule:evenodd;"
points="6048,4571
6048,3981
6638,3981
6638,4571
6048,4571
" /> 
<polyline style="fill-rule:evenodd;"
points="6934,4571
6934,3981
7524,3981
7524,4571
6934,4571
" /> 
<polyline style="fill-rule:evenodd;"
points="7820,4571
7820,3981
8410,3981
8410,4571
7820,4571
" /> 
<circle cx="8851.53" cy="6954" r="118" /> 
</g>
<g style="fill:#840000; fill-opacity:1.0; 
stroke:#840000; stroke-width:39.3701; stroke-opacity:1; 
stroke-linecap:round; stroke-linejoin:round;">
</g>
<g style="fill:#840000; fill-opacity:1.0; 
stroke:#840000; stroke-width:0; stroke-opacity:1; 
stroke-linecap:round; stroke-linejoin:round;">
<circle cx="8851.53" cy="7426" r="118" /> 
</g>
<g style="fill:#840000; fill-opacity:1.0; 
stroke:#840000; stroke-width:39.3701; stroke-opacity:1; 
stroke-linecap:round; stroke-linejoin:round;">
</g>
<g style="fill:#840000; fill-opacity:1.0; 
stroke:#840000; stroke-width:0; stroke-opacity:1; 
stroke-linecap:round; stroke-linejoin:round;">
<circle cx="8851.53" cy="7899" r="118" /> 
</g>
<g style="fill:#840000; fill-opacity:1.0; 
stroke:#840000; stroke-width:39.3701; stroke-opacity:1; 
stroke-linecap:round; stroke-linejoin:round;">
</g>
<g style="fill:#840000; fill-opacity:1.0; 
stroke:#840000; stroke-width:0; stroke-opacity:1; 
stroke-linecap:round; stroke-linejoin:round;">
<circle cx="5308.53" cy="5064" r="118" /> 
</g>
<g style="fill:#840000; fill-opacity:1.0; 
stroke:#840000; stroke-width:39.3701; stroke-opacity:1; 
stroke-linecap:round; stroke-linejoin:round;">
</g>
<g style="fill:#840000; fill-opacity:1.0; 
stroke:#840000; stroke-width:0; stroke-opacity:1; 
stroke-linecap:round; stroke-linejoin:round;">
<circle cx="5308.53" cy="5536" r="118" /> 
</g>
<g style="fill:#840000; fill-opacity:1.0; 
stroke:#840000; stroke-width:39.3701; stroke-opacity:1; 
stroke-linecap:round; stroke-linejoin:round;">
</g>
<g style="fill:#840000; fill-opacity:1.0; 
stroke:#840000; stroke-width:0; stroke-opacity:1; 
stroke-linecap:round; stroke-linejoin:round;">
<circle cx="5308.53" cy="6009" r="118" /> 
</g>
<g style="fill:#840000; fill-opacity:1.0; 
stroke:#840000; stroke-width:39.3701; stroke-opacity:1; 
stroke-linecap:round; stroke-linejoin:round;">
</g>
<g style="fill:#840000; fill-opacity:1.0; 
stroke:#840000; stroke-width:0; stroke-opacity:1; 
stroke-linecap:round; stroke-linejoin:round;">
<circle cx="5308.53" cy="6481" r="118" /> 
</g>
<g style="fill:#840000; fill-opacity:1.0; 
stroke:#840000; stroke-width:39.3701; stroke-opacity:1; 
stroke-linecap:round; stroke-linejoin:round;">
</g>
<g style="fill:#840000; fill-opacity:1.0; 
stroke:#840000; stroke-width:0; stroke-opacity:1; 
stroke-linecap:round; stroke-linejoin:round;">
<circle cx="5308.53" cy="6954" r="118" /> 
</g>
<g style="fill:#840000; fill-opacity:1.0; 
stroke:#840000; stroke-width:39.3701; stroke-opacity:1; 
stroke-linecap:round; stroke-linejoin:round;">
</g>
<g style="fill:#840000; fill-opacity:1.0; 
stroke:#840000; stroke-width:0; stroke-opacity:1; 
stroke-linecap:round; stroke-linejoin:round;">
<circle cx="5308.53" cy="7426" r="118" /> 
</g>
<g style="fill:#840000; fill-opacity:1.0; 
stroke:#840000; stroke-width:39.3701; stroke-opacity:1; 
stroke-linecap:round; stroke-linejoin:round;">
</g>
<g style="fill:#840000; fill-opacity:1.0; 
stroke:#840000; stroke-width:0; stroke-opacity:1; 
stroke-linecap:round; stroke-linejoin:round;">
<circle cx="5308.53" cy="7899" r="118" /> 
</g>
<g style="fill:#840000; fill-opacity:1.0; 
stroke:#840000; stroke-width:39.3701; stroke-opacity:1; 
stroke-linecap:round; stroke-linejoin:round;">
</g>
<g style="fill:#840000; fill-opacity:1.0; 
stroke:#840000; stroke-width:0; stroke-opacity:1; 
stroke-linecap:round; stroke-linejoin:round;">
<polyline style="fill-rule:evenodd;"
points="1638,9731
1647,9732
1655,9734
1663,9737
1671,9740
1678,9745
1685,9750
1691,9755
1696,9762
1702,9768
1706,9776
1709,9783
1712,9791
1714,9800
1716,9808
1716,9816
1716,9989
1716,9997
1714,10005
1712,10014
1709,10022
1706,10029
1702,10036
1696,10043
1691,10049
1685,10055
1678,10060
1671,10065
1663,10068
1655,10071
1647,10073
1638,10074
1630,10075
1428,10075
1420,10074
1411,10073
1403,10071
1395,10068
1388,10065
1380,10060
1374,10055
1367,10049
1362,10043
1357,10036
1352,10029
1349,10022
1346,10014
1344,10005
1342,9997
1342,9989
1342,9816
1342,9808
1344,9800
1346,9791
1349,9783
1352,9776
1357,9768
1362,9762
1367,9755
1374,9750
1380,9745
1388,9740
1395,9737
1403,9734
1411,9732
1420,9731
1428,9730
1630,9730
1638,9731
" /> 
<polyline style="fill-rule:evenodd;"
points="1638,10351
1647,10352
1655,10354
1663,10357
1671,10360
1678,10365
1685,10370
1691,10376
1696,10382
1702,10389
1706,10396
1709,10403
1712,10411
1714,10420
1716,10428
1716,10436
1716,10609
1716,10617
1714,10625
1712,10634
1709,10642
1706,10649
1702,10657
1696,10663
1691,10670
1685,10675
1678,10680
1671,10685
1663,10688
1655,10691
1647,10693
1638,10694
1630,10695
1428,10695
1420,10694
1411,10693
1403,10691
1395,10688
1388,10685
1380,10680
1374,10675
1367,10670
1362,10663
1357,10657
1352,10649
1349,10642
1346,10634
1344,10625
1342,10617
1342,10609
1342,10436
1342,10428
1344,10420
1346,10411
1349,10403
1352,10396
1357,10389
1362,10382
1367,10376
1374,10370
1380,10365
1388,10360
1395,10357
1403,10354
1411,10352
1420,10351
1428,10350
1630,10350
1638,10351
" /> 
<polyline style="fill-rule:evenodd;"
points="2638,9731
2647,9732
2655,9734
2663,9737
2671,9740
2678,9745
2685,9750
2691,9755
2696,9762
2702,9768
2706,9776
2709,9783
2712,9791
2714,9800
2716,9808
2716,9816
2716,9989
2716,9997
2714,10005
2712,10014
2709,10022
2706,10029
2702,10036
2696,10043
2691,10049
2685,10055
2678,10060
2671,10065
2663,10068
2655,10071
2647,10073
2638,10074
2630,10075
2428,10075
2420,10074
2411,10073
2403,10071
2395,10068
2388,10065
2380,10060
2374,10055
2367,10049
2362,10043
2357,10036
2352,10029
2349,10022
2346,10014
2344,10005
2342,9997
2342,9989
2342,9816
2342,9808
2344,9800
2346,9791
2349,9783
2352,9776
2357,9768
2362,9762
2367,9755
2374,9750
2380,9745
2388,9740
2395,9737
2403,9734
2411,9732
2420,9731
2428,9730
2630,9730
2638,9731
" /> 
<polyline style="fill-rule:evenodd;"
points="2638,10351
2647,10352
2655,10354
2663,10357
2671,10360
2678,10365
2685,10370
2691,10376
2696,10382
2702,10389
2706,10396
2709,10403
2712,10411
2714,10420
2716,10428
2716,10436
2716,10609
2716,10617
2714,10625
2712,10634
2709,10642
2706,10649
2702,10657
2696,10663
2691,10670
2685,10675
2678,10680
2671,10685
2663,10688
2655,10691
2647,10693
2638,10694
2630,10695
2428,10695
2420,10694
2411,10693
2403,10691
2395,10688
2388,10685
2380,10680
2374,10675
2367,10670
2362,10663
2357,10657
2352,10649
2349,10642
2346,10634
2344,10625
2342,10617
2342,10609
2342,10436
2342,10428
2344,10420
2346,10411
2349,10403
2352,10396
2357,10389
2362,10382
2367,10376
2374,10370
2380,10365
2388,10360
2395,10357
2403,10354
2411,10352
2420,10351
2428,10350
2630,10350
2638,10351
" /> 
<polyline style="fill-rule:evenodd;"
points="2814,11026
2822,11027
2830,11029
2838,11032
2846,11036
2853,11040
2860,11045
2866,11051
2872,11057
2877,11064
2881,11071
2885,11079
2888,11087
2890,11095
2891,11103
2891,11112
2891,11313
2891,11322
2890,11330
2888,11338
2885,11346
2881,11354
2877,11361
2872,11368
2866,11374
2860,11380
2853,11385
2846,11389
2838,11393
2830,11396
2822,11398
2814,11399
2805,11400
2633,11400
2624,11399
2616,11398
2608,11396
2600,11393
2592,11389
2585,11385
2578,11380
2572,11374
2566,11368
2561,11361
2557,11354
2553,11346
2550,11338
2548,11330
2547,11322
2547,11313
2547,11112
2547,11103
2548,11095
2550,11087
2553,11079
2557,11071
2561,11064
2566,11057
2572,11051
2578,11045
2585,11040
2592,11036
2600,11032
2608,11029
2616,11027
2624,11026
2633,11025
2805,11025
2814,11026
" /> 
<polyline style="fill-rule:evenodd;"
points="3434,11026
3442,11027
3450,11029
3458,11032
3466,11036
3473,11040
3480,11045
3486,11051
3492,11057
3497,11064
3501,11071
3505,11079
3508,11087
3510,11095
3511,11103
3511,11112
3511,11313
3511,11322
3510,11330
3508,11338
3505,11346
3501,11354
3497,11361
3492,11368
3486,11374
3480,11380
3473,11385
3466,11389
3458,11393
3450,11396
3442,11398
3434,11399
3425,11400
3253,11400
3245,11399
3236,11398
3228,11396
3220,11393
3212,11389
3205,11385
3198,11380
3192,11374
3186,11368
3181,11361
3177,11354
3173,11346
3171,11338
3168,11330
3167,11322
3167,11313
3167,11112
3167,11103
3168,11095
3171,11087
3173,11079
3177,11071
3181,11064
3186,11057
3192,11051
3198,11045
3205,11040
3212,11036
3220,11032
3228,11029
3236,11027
3245,11026
3253,11025
3425,11025
3434,11026
" /> 
<polyline style="fill-rule:evenodd;"
points="3138,4851
3147,4852
3155,4854
3163,4857
3171,4860
3178,4865
3185,4870
3191,4876
3196,4882
3202,4889
3206,4896
3209,4903
3212,4911
3214,4920
3216,4928
3216,4936
3216,5109
3216,5117
3214,5125
3212,5134
3209,5142
3206,5149
3202,5157
3196,5163
3191,5170
3185,5175
3178,5180
3171,5185
3163,5188
3155,5191
3147,5193
3138,5194
3130,5195
2928,5195
2920,5194
2911,5193
2903,5191
2895,5188
2888,5185
2880,5180
2874,5175
2867,5170
2862,5163
2857,5157
2852,5149
2849,5142
2846,5134
2844,5125
2842,5117
2842,5109
2842,4936
2842,4928
2844,4920
2846,4911
2849,4903
2852,4896
2857,4889
2862,4882
2867,4876
2874,4870
2880,4865
2888,4860
2895,4857
2903,4854
2911,4852
2920,4851
2928,4850
3130,4850
3138,4851
" /> 
<polyline style="fill-rule:evenodd;"
points="3138,4231
3147,4232
3155,4234
3163,4237
3171,4240
3178,4245
3185,4250
3191,4255
3196,4262
3202,4268
3206,4276
3209,4283
3212,4291
3214,4300
3216,4308
3216,4316
3216,4489
3216,4497
3214,4505
3212,4514
3209,4522
3206,4529
3202,4536
3196,4543
3191,4549
3185,4555
3178,4560
3171,4565
3163,4568
3155,4571
3147,4573
3138,4574
3130,4575
2928,4575
2920,4574
2911,4573
2903,4571
2895,4568
2888,4565
2880,4560
2874,4555
2867,4549
2862,4543
2857,4536
2852,4529
2849,4522
2846,4514
2844,4505
2842,4497
2842,4489
2842,4316
2842,4308
2844,4300
2846,4291
2849,4283
2852,4276
2857,4268
2862,4262
2867,4255
2874,4250
2880,4245
2888,4240
2895,4237
2903,4234
2911,4232
2920,4231
2928,4230
3130,4230
3138,4231
" /> 
<polyline style="fill-rule:evenodd;"
points="3138,6041
3147,6042
3155,6044
3163,6047
3171,6050
3178,6055
3185,6060
3191,6065
3196,6072
3202,6079
3206,6086
3209,6093
3212,6101
3214,6110
3216,6118
3216,6126
3216,6299
3216,6307
3214,6315
3212,6324
3209,6332
3206,6339
3202,6346
3196,6353
3191,6360
3185,6365
3178,6370
3171,6375
3163,6378
3155,6381
3147,6383
3138,6384
3130,6385
2928,6385
2920,6384
2911,6383
2903,6381
2895,6378
2888,6375
2880,6370
2874,6365
2867,6360
2862,6353
2857,6346
2852,6339
2849,6332
2846,6324
2844,6315
2842,6307
2842,6299
2842,6126
2842,6118
2844,6110
2846,6101
2849,6093
2852,6086
2857,6079
2862,6072
2867,6065
2874,6060
2880,6055
2888,6050
2895,6047
2903,6044
2911,6042
2920,6041
2928,6040
3130,6040
3138,6041
" /> 
<polyline style="fill-rule:evenodd;"
points="3138,5421
3147,5422
3155,5424
3163,5427
3171,5430
3178,5435
3185,5440
3191,5445
3196,5452
3202,5458
3206,5466
3209,5473
3212,5481
3214,5489
3216,5498
3216,5506
3216,5679
3216,5687
3214,5695
3212,5704
3209,5712
3206,5719
3202,5726
3196,5733
3191,5739
3185,5745
3178,5750
3171,5754
3163,5758
3155,5761
3147,5763
3138,5764
3130,5765
2928,5765
2920,5764
2911,5763
2903,5761
2895,5758
2888,5754
2880,5750
2874,5745
2867,5739
2862,5733
2857,5726
2852,5719
2849,5712
2846,5704
2844,5695
2842,5687
2842,5679
2842,5506
2842,5498
2844,5489
2846,5481
2849,5473
2852,5466
2857,5458
2862,5452
2867,5445
2874,5440
2880,5435
2888,5430
2895,5427
2903,5424
2911,5422
2920,5421
2928,5420
3130,5420
3138,5421
" /> 
<polyline style="fill-rule:evenodd;"
points="1655,4504
2403,4504
2403,4937
1655,4937
1655,4504
" /> 
<polyline style="fill-rule:evenodd;"
points="1655,5488
2403,5488
2403,5921
1655,5921
1655,5488
" /> 
</g>
<g style="fill:#C2C2C2; fill-opacity:1.0; 
stroke:#C2C2C2; stroke-width:0; stroke-opacity:1; 
stroke-linecap:round; stroke-linejoin:round;">
<circle cx="2529.53" cy="6713" r="157.48" /> 
</g>
<g style="fill:#C2C2C2; fill-opacity:1.0; 
stroke:#C2C2C2; stroke-width:39.3701; stroke-opacity:1; 
stroke-linecap:round; stroke-linejoin:round;">
</g>
<g style="fill:#C2C2C2; fill-opacity:1.0; 
stroke:#C2C2C2; stroke-width:0; stroke-opacity:1; 
stroke-linecap:round; stroke-linejoin:round;">
<circle cx="4029.53" cy="11213" r="157.48" /> 
</g>
<g style="fill:#C2C2C2; fill-opacity:1.0; 
stroke:#C2C2C2; stroke-width:39.3701; stroke-opacity:1; 
stroke-linecap:round; stroke-linejoin:round;">
</g>
<g style="fill:#C2C2C2; fill-opacity:1.0; 
stroke:#C2C2C2; stroke-width:0; stroke-opacity:1; 
stroke-linecap:round; stroke-linejoin:round;">
<circle cx="10279.5" cy="6963" r="157.48" /> 
</g>
<g style="fill:#C2C2C2; fill-opacity:1.0; 
stroke:#C2C2C2; stroke-width:39.3701; stroke-opacity:1; 
stroke-linecap:round; stroke-linejoin:round;">
</g>
<g style="fill:#C2C2C2; fill-opacity:1.0; 
stroke:#C2C2C2; stroke-width:0; stroke-opacity:1; 
stroke-linecap:round; stroke-linejoin:round;">
<circle cx="4029.53" cy="12713" r="157.48" /> 
</g>
<g style="fill:#C2C2C2; fill-opacity:1.0; 
stroke:#C2C2C2; stroke-width:39.3701; stroke-opacity:1; 
stroke-linecap:round; stroke-linejoin:round;">
</g>
<g style="fill:#C2C2C2; fill-opacity:1.0; 
stroke:#C2C2C2; stroke-width:0; stroke-opacity:1; 
stroke-linecap:round; stroke-linejoin:round;">
<circle cx="9029.53" cy="4213" r="157.48" /> 
</g>
<g style="fill:#C2C2C2; fill-opacity:1.0; 
stroke:#C2C2C2; stroke-width:39.3701; stroke-opacity:1; 
stroke-linecap:round; stroke-linejoin:round;">
</g>
<g style="fill:#C2C2C2; fill-opacity:1.0; 
stroke:#C2C2C2; stroke-width:0; stroke-opacity:1; 
stroke-linecap:round; stroke-linejoin:round;">
<circle cx="11529.5" cy="9713" r="157.48" /> 
</g>
<g style="fill:#C2C2C2; fill-opacity:1.0; 
stroke:#C2C2C2; stroke-width:39.3701; stroke-opacity:1; 
stroke-linecap:round; stroke-linejoin:round;">
</g>
<g style="fill:#C2C2C2; fill-opacity:1.0; 
stroke:#C2C2C2; stroke-width:0; stroke-opacity:1; 
stroke-linecap:round; stroke-linejoin:round;">
<circle cx="10529.5" cy="9713" r="157.48" /> 
</g>
<g style="fill:#C2C2C2; fill-opacity:1.0; 
stroke:#C2C2C2; stroke-width:39.3701; stroke-opacity:1; 
stroke-linecap:round; stroke-linejoin:round;">
</g>
<g style="fill:#C2C2C2; fill-opacity:1.0; 
stroke:#C2C2C2; stroke-width:0; stroke-opacity:1; 
stroke-linecap:round; stroke-linejoin:round;">
<circle cx="11100.4" cy="10213" r="157.48" /> 
</g>
<g style="fill:#C2C2C2; fill-opacity:1.0; 
stroke:#C2C2C2; stroke-width:39.3701; stroke-opacity:1; 
stroke-linecap:round; stroke-linejoin:round;">
</g>
<g style="fill:#C2C2C2; fill-opacity:1.0; 
stroke:#C2C2C2; stroke-width:0; stroke-opacity:1; 
stroke-linecap:round; stroke-linejoin:round;">
<circle cx="10529.5" cy="10213" r="157.48" /> 
</g>
<g style="fill:#C2C2C2; fill-opacity:1.0; 
stroke:#C2C2C2; stroke-width:39.3701; stroke-opacity:1; 
stroke-linecap:round; stroke-linejoin:round;">
</g>
<g style="fill:#C2C2C2; fill-opacity:1.0; 
stroke:#C2C2C2; stroke-width:0; stroke-opacity:1; 
stroke-linecap:round; stroke-linejoin:round;">
<circle cx="8851.53" cy="4713" r="157.48" /> 
</g>
<g style="fill:#C2C2C2; fill-opacity:1.0; 
stroke:#C2C2C2; stroke-width:39.3701; stroke-opacity:1; 
stroke-linecap:round; stroke-linejoin:round;">
</g>
<g style="fill:#C2C2C2; fill-opacity:1.0; 
stroke:#C2C2C2; stroke-width:0; stroke-opacity:1; 
stroke-linecap:round; stroke-linejoin:round;">
<circle cx="1219.49" cy="12713" r="157.48" /> 
</g>
<g style="fill:#C2C2C2; fill-opacity:1.0; 
stroke:#C2C2C2; stroke-width:39.3701; stroke-opacity:1; 
stroke-linecap:round; stroke-linejoin:round;">
</g>
<g style="fill:#840000; fill-opacity:1.0; 
stroke:#840000; stroke-width:39.3701; stroke-opacity:1; 
stroke-linecap:round; stroke-linejoin:round;">
</g>
<g style="fill:#840000; fill-opacity:1.0; 
stroke:#840000; stroke-width:98.4252; stroke-opacity:1; 
stroke-linecap:round; stroke-linejoin:round;">
</g>
<g style="fill:#840000; fill-opacity:0.0; 
stroke:#840000; stroke-width:98.4252; stroke-opacity:1; 
stroke-linecap:round; stroke-linejoin:round;">
<path d="M6088 10713
L5761 10713
" />
<path d="M9933 7347
L10067 7213
" />
<path d="M9540 7347
L9933 7347
" />
<path d="M5458 4276
L8115 4276
" />
<path d="M3029 4402
L3339 4402
" />
<path d="M3466 4276
L5458 4276
" />
<path d="M3339 4402
L3466 4276
" />
<path d="M3029 6213
L2529 6713
" />
<path d="M3339 11213
L4029 11213
" />
<path d="M10067 7213
L10067 7174
" />
<path d="M10067 7174
L10279 6963
" />
<path d="M5761 9713
L5761 10213
" />
<path d="M5761 10213
L5029 10213
" />
<path d="M5029 10213
L4029 11213
" />
<path d="M3339 11213
L3339 12023
" />
<path d="M3339 12023
L4029 12713
" />
<path d="M4029 12713
L12029 12713
" />
<path d="M12029 12713
L12529 13213
" />
<path d="M12529 13213
L12529 16213
" />
<path d="M12529 16213
L12529 18713
" />
<path d="M12529 18713
L12529 22213
" />
<path d="M12529 22213
L12529 24713
" />
<path d="M12529 24713
L12529 28213
" />
<path d="M12529 28213
L12529 30713
" />
<path d="M12529 30713
L12529 34713
" />
<path d="M12529 34713
L12529 36713
" />
<path d="M8508 4276
L8571 4213
" />
<path d="M8115 4276
L8508 4276
" />
<path d="M8571 4213
L9029 4213
" />
<path d="M9751 4749
L11154 6152
" />
<path d="M9540 4749
L9751 4749
" />
<path d="M11154 6587
L11529 6962
" />
<path d="M11154 6152
L11154 6587
" />
<path d="M11529 6962
L11529 9713
" />
<path d="M10529 9713
L9029 9713
" />
<path d="M8529 9213
L7297 9213
" />
<path d="M9029 9713
L8529 9213
" />
<path d="M9540 5182
L9933 5182
" />
<path d="M9933 5182
L10529 5777
" />
<path d="M10529 5777
L10529 6213
" />
<path d="M10529 6213
L11029 6713
" />
<path d="M11029 6713
L11029 7713
" />
<path d="M11029 10213
L11100 10213
" />
<path d="M11029 7713
L11100 10213
" />
<path d="M10529 10213
L9029 10213
" />
<path d="M8529 9713
L7297 9713
" />
<path d="M9029 10213
L8529 9713
" />
<path d="M9540 5615
L9933 5615
" />
<path d="M9933 5615
L10031 5713
" />
<path d="M10031 5713
L10031 6215
" />
<path d="M10031 6215
L10814 6998
" />
<path d="M10814 6998
L10814 10927
" />
<path d="M10529 11213
L7297 11213
" />
<path d="M10814 10927
L10529 11213
" />
<path d="M5761 8480
L5761 9213
" />
<path d="M6029 8213
L5761 8480
" />
<path d="M9540 7780
L9383 7780
" />
<path d="M9383 7780
L8950 8213
" />
<path d="M8950 8213
L6029 8213
" />
<path d="M8851 6954
L8851 6391
" />
<path d="M8851 6391
L8851 4713
" />
<path d="M1529 8713
L1529 9902
" />
<path d="M2529 7713
L1529 8713
" />
<path d="M3270 7713
L2529 7713
" />
<path d="M4029 7347
L3636 7347
" />
<path d="M3636 7347
L3270 7713
" />
<path d="M2719 10713
L2529 10523
" />
<path d="M2719 11213
L2719 10713
" />
<path d="M1529 10523
L1529 11213
" />
<path d="M1529 11213
L2719 11213
" />
<path d="M3636 6481
L3029 7087
" />
<path d="M4029 6481
L3636 6481
" />
<path d="M3029 7087
L1654 7087
" />
<path d="M1654 7087
L1029 7713
" />
<path d="M1029 10023
L1529 10523
" />
<path d="M1029 7713
L1029 10023
" />
<path d="M2719 11213
L1219 12713
" />
<path d="M1219 12713
L1029 12713
" />
<path d="M529 38713
L529 39213
" />
<path d="M1029 12713
L529 13213
" />
<path d="M529 13213
L529 19213
" />
<path d="M529 19213
L529 21713
" />
<path d="M529 21713
L529 25213
" />
<path d="M529 25213
L529 27713
" />
<path d="M529 27713
L529 31213
" />
<path d="M529 31213
L529 33713
" />
<path d="M529 33713
L529 37213
" />
<path d="M529 37213
L529 38713
" />
<path d="M3872 7780
L3529 8122
" />
<path d="M4029 7780
L3872 7780
" />
<path d="M3529 8122
L3120 8122
" />
<path d="M3120 8122
L2529 8713
" />
<path d="M2529 8713
L2529 9902
" />
<path d="M4029 5615
L3799 5615
" />
<path d="M3621 5615
L3029 5023
" />
<path d="M4029 5615
L3621 5615
" />
<path d="M3029 5023
L2331 5023
" />
<path d="M2331 5023
L2029 4720
" />
<path d="M3484 6048
L3029 5592
" />
<path d="M4029 6048
L3484 6048
" />
<path d="M2141 5592
L2029 5705
" />
<path d="M3029 5592
L2141 5592
" />
</g>
<g style="fill:#840000; fill-opacity:1.0; 
stroke:#840000; stroke-width:100; stroke-opacity:1; 
stroke-linecap:round; stroke-linejoin:round;">
<polyline style="fill-rule:evenodd;"
points="11979,15663
579,15663
579,13263
11979,13263
11979,15663
" /> 
<polyline style="fill-rule:evenodd;"
points="11979,21663
579,21663
579,19263
11979,19263
11979,21663
" /> 
<polyline style="fill-rule:evenodd;"
points="12479,24663
1079,24663
1079,22263
12479,22263
12479,24663
" /> 
<polyline style="fill-rule:evenodd;"
points="11979,27663
579,27663
579,25263
11979,25263
11979,27663
" /> 
<polyline style="fill-rule:evenodd;"
points="12479,30663
1079,30663
1079,28263
12479,28263
12479,30663
" /> 
<polyline style="fill-rule:evenodd;"
points="11979,33663
579,33663
579,31263
11979,31263
11979,33663
" /> 
<polyline style="fill-rule:evenodd;"
points="12479,36663
1079,36663
1079,34263
12479,34263
12479,36663
" /> 
<polyline style="fill-rule:evenodd;"
points="12479,39182
6529,42157
579,39182
579,37263
12479,37263
12479,39182
" /> 
<polyline style="fill-rule:evenodd;"
points="12479,18663
1079,18663
1079,16263
12479,16263
12479,18663
" /> 
</g>
<g style="fill:#FFFFFF; fill-opacity:1.0; 
stroke:#FFFFFF; stroke-width:100; stroke-opacity:1; 
stroke-linecap:round; stroke-linejoin:round;">
</g>
<g style="fill:#FFFFFF; fill-opacity:1.0; 
stroke:#FFFFFF; stroke-width:0; stroke-opacity:1; 
stroke-linecap:round; stroke-linejoin:round;">
<circle cx="2529.53" cy="6713" r="78.7402" /> 
</g>
<g style="fill:#FFFFFF; fill-opacity:1.0; 
stroke:#FFFFFF; stroke-width:39.3701; stroke-opacity:1; 
stroke-linecap:round; stroke-linejoin:round;">
</g>
<g style="fill:#FFFFFF; fill-opacity:1.0; 
stroke:#FFFFFF; stroke-width:0; stroke-opacity:1; 
stroke-linecap:round; stroke-linejoin:round;">
<circle cx="4029.53" cy="11213" r="78.7402" /> 
</g>
<g style="fill:#FFFFFF; fill-opacity:1.0; 
stroke:#FFFFFF; stroke-width:39.3701; stroke-opacity:1; 
stroke-linecap:round; stroke-linejoin:round;">
</g>
<g style="fill:#FFFFFF; fill-opacity:1.0; 
stroke:#FFFFFF; stroke-width:0; stroke-opacity:1; 
stroke-linecap:round; stroke-linejoin:round;">
<circle cx="10279.5" cy="6963" r="78.7402" /> 
</g>
<g style="fill:#FFFFFF; fill-opacity:1.0; 
stroke:#FFFFFF; stroke-width:39.3701; stroke-opacity:1; 
stroke-linecap:round; stroke-linejoin:round;">
</g>
<g style="fill:#FFFFFF; fill-opacity:1.0; 
stroke:#FFFFFF; stroke-width:0; stroke-opacity:1; 
stroke-linecap:round; stroke-linejoin:round;">
<circle cx="4029.53" cy="12713" r="78.7402" /> 
</g>
<g style="fill:#FFFFFF; fill-opacity:1.0; 
stroke:#FFFFFF; stroke-width:39.3701; stroke-opacity:1; 
stroke-linecap:round; stroke-linejoin:round;">
</g>
<g style="fill:#FFFFFF; fill-opacity:1.0; 
stroke:#FFFFFF; stroke-width:0; stroke-opacity:1; 
stroke-linecap:round; stroke-linejoin:round;">
<circle cx="9029.53" cy="4213" r="78.7402" /> 
</g>
<g style="fill:#FFFFFF; fill-opacity:1.0; 
stroke:#FFFFFF; stroke-width:39.3701; stroke-opacity:1; 
stroke-linecap:round; stroke-linejoin:round;">
</g>
<g style="fill:#FFFFFF; fill-opacity:1.0; 
stroke:#FFFFFF; stroke-width:0; stroke-opacity:1; 
stroke-linecap:round; stroke-linejoin:round;">
<circle cx="11529.5" cy="9713" r="78.7402" /> 
</g>
<g style="fill:#FFFFFF; fill-opacity:1.0; 
stroke:#FFFFFF; stroke-width:39.3701; stroke-opacity:1; 
stroke-linecap:round; stroke-linejoin:round;">
</g>
<g style="fill:#FFFFFF; fill-opacity:1.0; 
stroke:#FFFFFF; stroke-width:0; stroke-opacity:1; 
stroke-linecap:round; stroke-linejoin:round;">
<circle cx="10529.5" cy="9713" r="78.7402" /> 
</g>
<g style="fill:#FFFFFF; fill-opacity:1.0; 
stroke:#FFFFFF; stroke-width:39.3701; stroke-opacity:1; 
stroke-linecap:round; stroke-linejoin:round;">
</g>
<g style="fill:#FFFFFF; fill-opacity:1.0; 
stroke:#FFFFFF; stroke-width:0; stroke-opacity:1; 
stroke-linecap:round; stroke-linejoin:round;">
<circle cx="11100.4" cy="10213" r="78.7402" /> 
</g>
<g style="fill:#FFFFFF; fill-opacity:1.0; 
stroke:#FFFFFF; stroke-width:39.3701; stroke-opacity:1; 
stroke-linecap:round; stroke-linejoin:round;">
</g>
<g style="fill:#FFFFFF; fill-opacity:1.0; 
stroke:#FFFFFF; stroke-width:0; stroke-opacity:1; 
stroke-linecap:round; stroke-linejoin:round;">
<circle cx="10529.5" cy="10213" r="78.7402" /> 
</g>
<g style="fill:#FFFFFF; fill-opacity:1.0; 
stroke:#FFFFFF; stroke-width:39.3701; stroke-opacity:1; 
stroke-linecap:round; stroke-linejoin:round;">
</g>
<g style="fill:#FFFFFF; fill-opacity:1.0; 
stroke:#FFFFFF; stroke-width:0; stroke-opacity:1; 
stroke-linecap:round; stroke-linejoin:round;">
<circle cx="8851.53" cy="4713" r="78.7402" /> 
</g>
<g style="fill:#FFFFFF; fill-opacity:1.0; 
stroke:#FFFFFF; stroke-width:39.3701; stroke-opacity:1; 
stroke-linecap:round; stroke-linejoin:round;">
</g>
<g style="fill:#FFFFFF; fill-opacity:1.0; 
stroke:#FFFFFF; stroke-width:0; stroke-opacity:1; 
stroke-linecap:round; stroke-linejoin:round;">
<circle cx="1219.49" cy="12713" r="78.7402" /> 
</g>
<g style="fill:#FFFFFF; fill-opacity:1.0; 
stroke:#FFFFFF; stroke-width:39.3701; stroke-opacity:1; 
stroke-linecap:round; stroke-linejoin:round;">
</g>
<g style="fill:#000000; fill-opacity:1.0; 
stroke:#000000; stroke-width:39.3701; stroke-opacity:1; 
stroke-linecap:round; stroke-linejoin:round;">
</g>
<g style="fill:#C2C200; fill-opacity:1.0; 
stroke:#C2C200; stroke-width:39.3701; stroke-opacity:1; 
stroke-linecap:round; stroke-linejoin:round;">
</g>
<g style="fill:#C2C200; fill-opacity:1.0; 
stroke:#C2C200; stroke-width:59.0551; stroke-opacity:1; 
stroke-linecap:round; stroke-linejoin:round;">
</g>
<g style="fill:#C2C200; fill-opacity:0.0; 
stroke:#C2C200; stroke-width:59.0551; stroke-opacity:1; 
stroke-linecap:round; stroke-linejoin:round;">
<path d="M29 3713
L29 39213
" />
<path d="M13029 39213
L13029 3713
" />
<path d="M13029 3713
L12029 3713
" />
<path d="M6529 42713
L13029 39213
" />
<path d="M29 39213
L6529 42713
" />
<path d="M529 3713
L29 3713
" />
<path d="M1029 3713
L529 3713
" />
<path d="M1029 3713
L12029 3713
" />
</g> 
</svg>
